
<svg xmlns="http://www.w3.org/2000/svg" width="6.038" height="10.979" viewBox="0 0 6.038 10.979">
  <g id="Page-1" transform="translate(0 -0.001)">
    <g id="Dribbble-Light-Preview" transform="translate(0 0.001)">
      <g id="icons" transform="translate(0)">
        <path id="arrow_right-_336_" data-name="arrow_right-[#336]" d="M249.2,6529.819a.583.583,0,0,0,.8,0l4.7-4.536a1.07,1.07,0,0,0,0-1.552l-4.734-4.57a.582.582,0,0,0-.8,0,.533.533,0,0,0-.173.389.54.54,0,0,0,.167.394l4.333,4.18a.536.536,0,0,1,0,.776l-4.3,4.147a.535.535,0,0,0,0,.776" transform="translate(-249 -6519.001)" fill="#1a508e" fill-rule="evenodd"/>
      </g>
    </g>
  </g>
</svg>
