<svg id="Icon_ionic-ios-arrow-dropleft" data-name="Icon ionic-ios-arrow-dropleft" xmlns="http://www.w3.org/2000/svg" width="42.929" height="42.929" viewBox="0 0 42.929 42.929">
    <path id="Path_48" data-name="Path 48" d="M25.4,10.563a2,2,0,0,0-2.817,0l-9.845,9.876a1.99,1.99,0,0,0-.062,2.745l9.7,9.731A1.988,1.988,0,1,0,25.2,30.108l-8.235-8.359,8.452-8.369A1.99,1.99,0,0,0,25.4,10.563Z" transform="translate(0.734 -0.285)" fill="#eaa117"/>
    <path id="Path_49" data-name="Path 49" d="M24.839,3.375A21.464,21.464,0,1,0,46.3,24.839,21.461,21.461,0,0,0,24.839,3.375Zm12.837,34.3A18.155,18.155,0,1,1,12,12,18.155,18.155,0,1,1,37.677,37.677Z" transform="translate(-3.375 -3.375)" fill="#eaa117"/>
  </svg>