<svg xmlns="http://www.w3.org/2000/svg" width="17.714" height="17.663" viewBox="0 0 17.714 17.663">
  <path id="Path_17" data-name="Path 17" d="M17.5,11.782a2.8,2.8,0,0,1-.6-.107,8.391,8.391,0,0,1-1.164-.347,1.778,1.778,0,0,0-2.2.889l-.2.4a10.827,10.827,0,0,1-2.364-1.778A10.827,10.827,0,0,1,9.2,8.476l.373-.249a1.778,1.778,0,0,0,.889-2.2,9.182,9.182,0,0,1-.347-1.164c-.044-.2-.08-.4-.107-.6A2.667,2.667,0,0,0,7.34,2.04H4.674A2.667,2.667,0,0,0,2.007,5.071,16.889,16.889,0,0,0,16.691,19.7h.338A2.66,2.66,0,0,0,19.7,17.027V14.36A2.667,2.667,0,0,0,17.5,11.782Zm.444,5.333a.889.889,0,0,1-.3.667.933.933,0,0,1-.729.222A15.111,15.111,0,0,1,3.838,4.867a.969.969,0,0,1,.222-.729.889.889,0,0,1,.667-.3H7.394a.889.889,0,0,1,.889.7q.053.364.133.72a9.885,9.885,0,0,0,.409,1.378L7.58,7.213A.889.889,0,0,0,7.145,8.4a12.88,12.88,0,0,0,6.222,6.222.942.942,0,0,0,1.182-.462l.551-1.244a12.169,12.169,0,0,0,1.4.409q.356.08.72.133a.889.889,0,0,1,.7.889Z" transform="translate(-1.982 -2.04)" fill="#fff"/>
</svg>
