<svg xmlns="http://www.w3.org/2000/svg" width="27.44" height="27.44" viewBox="0 0 27.44 27.44">
  <path id="Icon_awesome-plus" data-name="Icon awesome-plus" d="M25.48,13.03H16.66V4.21A1.96,1.96,0,0,0,14.7,2.25H12.74a1.96,1.96,0,0,0-1.96,1.96v8.82H1.96A1.96,1.96,0,0,0,0,14.99v1.96a1.96,1.96,0,0,0,1.96,1.96h8.82v8.82a1.96,1.96,0,0,0,1.96,1.96H14.7a1.96,1.96,0,0,0,1.96-1.96V18.91h8.82a1.96,1.96,0,0,0,1.96-1.96V14.99A1.96,1.96,0,0,0,25.48,13.03Z" transform="translate(0 -2.25)" fill="#0e1a2b"/>
</svg>
