<svg id="Icon_ionic-ios-arrow-dropright" data-name="Icon ionic-ios-arrow-dropright" xmlns="http://www.w3.org/2000/svg" width="42.929" height="42.929" viewBox="0 0 42.929 42.929">
  <path id="Path_46" data-name="Path 46" d="M15,10.563a2,2,0,0,1,2.817,0l9.845,9.876a1.99,1.99,0,0,1,.062,2.745l-9.7,9.731a1.988,1.988,0,1,1-2.817-2.807l8.245-8.369L15,13.37A1.968,1.968,0,0,1,15,10.563Z" transform="translate(1.787 -0.285)" fill="#eaa117"/>
  <path id="Path_47" data-name="Path 47" d="M3.375,24.839A21.464,21.464,0,1,0,24.839,3.375,21.461,21.461,0,0,0,3.375,24.839Zm3.3,0A18.155,18.155,0,0,1,37.677,12,18.155,18.155,0,1,1,12,37.677,18.006,18.006,0,0,1,6.677,24.839Z" transform="translate(-3.375 -3.375)" fill="#eaa117"/>
</svg>
